<svg id="Ebene_1" data-name="Ebene 1" xmlns="http://www.w3.org/2000/svg" xmlns:xlink="http://www.w3.org/1999/xlink" viewBox="0 0 852.34 841.79"><defs><style>.cls-1,.cls-3{fill:none;}.cls-2{clip-path:url(#clip-path);}.cls-3{stroke:#7898c9;stroke-width:0.5px;}</style><clipPath id="clip-path" transform="translate(-2.52 -1.44)"><rect class="cls-1" x="2.52" y="1.44" width="852.34" height="841.79"/></clipPath></defs><title>idaiworld_architecture_netz</title><g class="cls-2"><polygon class="cls-3" points="275.36 841.41 552.46 841.41 724.83 710.5 851.97 500.78 818.73 281.09 635.37 61.82 425.91 0.29 216.45 60.51 33.17 278.48 0.44 499.94 100.81 710.5 275.36 841.41"/></g><path class="cls-3" d="M723,715.21" transform="translate(-2.52 -1.44)"/><g class="cls-2"><polygon class="cls-3" points="275.47 841.36 724.83 710.54 635.33 61.9 33.17 278.48 275.47 841.36"/><polyline class="cls-3" points="552.42 841.29 851.97 500.63 635.33 61.9 216.44 60.56 213.96 65.59 0.65 499.79 275.36 841.41 851.76 500.71 425.92 0.39 423.44 3.44 0.44 499.72 724.69 710.4 101 710.47"/><polygon class="cls-3" points="552.27 841.22 33.25 278.54 818.59 281.31 552.27 841.22"/><polyline class="cls-3" points="552.27 841.29 100.79 710.26 216.65 60.84 818.66 281.02 275.54 841.22 216.72 60.84 851.75 500.71 101 710.19 425.92 0.68 724.62 710.47 33.17 278.48 851.61 500.71"/><line class="cls-3" x1="552.13" y1="841.36" x2="216.51" y2="60.63"/></g><line class="cls-3" x1="216.65" y1="60.63" x2="724.62" y2="710.61"/><g class="cls-2"><line class="cls-3" x1="552.28" y1="841.29" x2="425.99" y2="0.46"/><line class="cls-3" x1="635.4" y1="61.9" x2="275.47" y2="841.22"/><line class="cls-3" x1="275.47" y1="841.36" x2="425.99" y2="0.67"/><line class="cls-3" x1="635.26" y1="62.19" x2="552.28" y2="841.22"/><line class="cls-3" x1="0.44" y1="499.86" x2="818.66" y2="281.09"/></g></svg>