<?xml version="1.0" encoding="UTF-8"?>
<!-- Generator: Adobe Illustrator 26.5.0, SVG Export Plug-In . SVG Version: 6.00 Build 0)  -->
<svg version="1.1" id="Ebene_1" xmlns="http://www.w3.org/2000/svg" xmlns:xlink="http://www.w3.org/1999/xlink" x="0px" y="0px" viewBox="0 0 365.9 118.1" style="enable-background:new 0 0 365.9 118.1;" xml:space="preserve">
<style type="text/css">
	.st0{fill:#FFFFFF;}
	.st1{fill:#A6214B;}
	.st2{fill:#A51848;}
</style>
<path class="st0" d="M114,59.1c0,30.6-24.7,55.4-55.4,55.4S3.3,89.7,3.3,59.1S28,3.7,58.7,3.7S114,28.5,114,59.1z"/>
<g>
	<path class="st1" d="M40.8,33c0.7,0,1.9,0.1,2.4-0.4c1.7-1.5,3.2-2.7,4.1-3.6c0.3-0.3,0.2-0.6,0-0.7c-2-0.9-3.7-1.7-4.8-2.2   c-0.4-0.2-0.6-0.1-0.8-0.1c-4.5,1.5-6.4,1.7-7.9-0.2c-0.8-1-1.5-1.7-2-1.9c-0.7-0.3-1.8-0.2-1.4,1.4C30.9,28.2,33.4,33,40.8,33    M89.3,76.8c-0.7-2.1-3-7.4-2.1-11.3c1-4.2,2.6-10.5-4.3-24.4c-1.5-3-3.5-7-3.7-9.2c-0.1-1,0.3-1.7,1-1.7c3.9-0.2,5.9-1.5,7.1-2.8   c1.4-1.4,2.4-3.7,1-5.6c-1-1.3-2.5-1.7-4.4-1c-0.3,0.1-0.3-0.1-0.3-0.2c0.3-0.9,0.7-2.4-0.6-3.7c-1.2-1.2-3-1.3-4.8-0.5   c-1.6,0.6-3.1,2.2-4.2,5.2c-0.6,1.5-2,1.3-3.7,0.8c-5.7-1.6-6.5,1.2-10.1,1.5c-6.1,0.5-17.6-4.8-19.8-2.4c-1.4,1.6,1.8,3.5,2.7,3.9   c2.2,1,5.1,2.3,5.9,2.8c0.4,0.2,0.3,0.7,0.1,1c-0.4,0.4-4.5,4-5.2,4.6c-0.2,0.2-0.7,1.2,1.7,1.5c4.1,0.7,13.4-4.7,19.6,1.2   c1.8,1.7,4.1,10.3-1.7,13.9c-4.8,3-21.9,0.8-30.5,5.8c-3.3,1.9-5.3,5-6.5,8c-6.4,2.4-9.7,5.3-12.1,10.3c-1.4,2.8-1.4,5.4-0.1,5.8   c1.2,0.3,2-1.1,5-3.3c3-2.2,5.1-2.2,6.2-2.3c-0.3,6.5,4.5,17.2,7.3,21.4c2.7,4.3,5.5,5.9,9.9,6.1c8.2,0.3,14.8,0.3,17.8,0.2   c1.2,0,1.4-1.9,0.2-2.1c-0.6-0.1-1.6-0.1-2.1-0.1c-1-0.1-1-1.4,0-1.4c0.7,0,1.7,0,2.2-0.1c1-0.2,1.2-2.1-0.3-2.1   c-4.5-0.1-11-0.3-16.3-0.8c-2.5-0.3-5.3-3.2-5.1-9.7c0-0.3,9-6.7,5.9-14.7c-0.2-0.5,0-0.8,0.6-0.6c0.4,0.1,1.4,0.6,2.2,0.9   c7.5,3,19.8,3.4,27.5,2.2c0,0,1.5,3,6.3,4.6c2.5,0.9,3.7,6.8-0.1,12.7c-1.6,2.5-5.6,7-5.9,7.2c-1,1.1,0.5,2.4,1.4,1.4   c0.3-0.3,0.9-1,1.2-1.4c0.6-0.8,1.6,0,0.9,0.9c-0.5,0.6-0.7,0.8-1.1,1.3c-0.9,1,0.7,2.1,1.5,1.2c0.4-0.4,1-1,1.3-1.4   C86.6,93.6,92.1,85.9,89.3,76.8 M66,26.2c0-0.9,0.7-1.6,1.6-1.6s1.6,0.7,1.6,1.6s-0.7,1.6-1.6,1.6S66,27.2,66,26.2 M69,40.8   c-0.6,0-1-0.5-0.9-1c0-0.6,0.5-1,1-0.9c0.6,0,1,0.5,0.9,1C70,40.4,69.6,40.8,69,40.8 M72,39.7c-0.6,0-1-0.5-0.9-1   c0-0.6,0.5-1,1-0.9c0.6,0,1,0.5,0.9,1C73.1,39.2,72.6,39.7,72,39.7 M86.8,22.7c1.4,1.5-0.2,3.2-1.2,4s-3.9,2.3-5.2,0.6   c-0.9-1.3,0.8-3,2-4C83.4,22.4,85.7,21.2,86.8,22.7 M75.1,38.5c-0.6-0.1-1-0.5-0.9-1c0-0.6,0.5-1,1-0.9c0.6,0,1,0.5,0.9,1   C76.1,38.2,75.7,38.7,75.1,38.5 M76.2,23.2c-0.9-0.9-0.3-3,1.2-4.5c1.2-1.1,2.8-2,4.1-0.8c1.4,1.2-0.2,3.7-1,4.4   C78.9,24,77.3,24.4,76.2,23.2 M78.2,37.5c-0.6,0-1-0.5-0.9-1c0-0.6,0.5-1,1-0.9c0.6,0,1,0.5,0.9,1C79.2,37.2,78.7,37.7,78.2,37.5    M115.8,59c0,31.5-25.5,57.1-57.1,57.1S1.7,90.6,1.7,59S27.2,2,58.8,2S115.8,27.5,115.8,59z"/>
	<g>
		<path class="st2" d="M170.4,99.4L165.6,83h-24.7L136,99.4h-14.3l23.2-71.6h17.9l22.7,71.6H170.4z M153.4,40.3h-0.1L144,71.5h18.6    L153.4,40.3z"/>
		<path class="st2" d="M253.1,99.4l-2.5-51.1h-0.1l-20.4,39.5l-20.4-39.5h-0.1l-2.3,51.1h-13.6l4.7-71.6h14.3l17.5,33.6h0.1    l17.2-33.6h14.4l4.7,71.6H253.1z"/>
		<path class="st2" d="M320.5,99.4V68.5H294v30.9h-14.2V27.8H294v28.3h26.5V27.8h14.2v71.6H320.5z"/>
	</g>
</g>
</svg>